<svg xmlns="http://www.w3.org/2000/svg" width="35" height="35" viewBox="0 0 35 35"><defs><style>.a{fill:none;stroke:#000;stroke-linecap:round;stroke-linejoin:round;stroke-width:3px;}</style></defs><g transform="translate(-1.5 -1.5)"><path class="a" d="M11,3H27a8,8,0,0,1,8,8V27a8,8,0,0,1-8,8H11a8,8,0,0,1-8-8V11a8,8,0,0,1,8-8Z"/><path class="a" d="M24,17.055A6,6,0,1,1,18.945,12,6,6,0,0,1,24,17.055Z" transform="translate(1.007 0.993)"/><path class="a" d="M26.25,9.75h0" transform="translate(1.55 0.45)"/></g></svg>