<svg xmlns="http://www.w3.org/2000/svg" width="17.977" height="17.973" viewBox="0 0 17.977 17.973"><defs><style>.a{fill:#fff;}</style></defs><path class="a" d="M8.985,6.616a4.608,4.608,0,1,0,4.608,4.608A4.6,4.6,0,0,0,8.985,6.616Zm0,7.6a3,3,0,1,1,3-3A3,3,0,0,1,8.985,14.22Zm5.871-7.792a1.075,1.075,0,1,1-1.075-1.075A1.072,1.072,0,0,1,14.857,6.428Zm3.052,1.091a5.319,5.319,0,0,0-1.452-3.766A5.354,5.354,0,0,0,12.691,2.3c-1.484-.084-5.932-.084-7.415,0A5.346,5.346,0,0,0,1.51,3.749,5.336,5.336,0,0,0,.058,7.515C-.026,9-.026,13.446.058,14.93A5.319,5.319,0,0,0,1.51,18.7a5.361,5.361,0,0,0,3.766,1.452c1.484.084,5.932.084,7.415,0A5.319,5.319,0,0,0,16.457,18.7a5.354,5.354,0,0,0,1.452-3.766c.084-1.484.084-5.928,0-7.411Zm-1.917,9a3.033,3.033,0,0,1-1.708,1.708c-1.183.469-3.99.361-5.3.361s-4.119.1-5.3-.361a3.033,3.033,0,0,1-1.708-1.708c-.469-1.183-.361-3.99-.361-5.3s-.1-4.119.361-5.3A3.033,3.033,0,0,1,3.687,4.218c1.183-.469,3.99-.361,5.3-.361s4.119-.1,5.3.361a3.033,3.033,0,0,1,1.708,1.708c.469,1.183.361,3.99.361,5.3S16.461,15.343,15.992,16.522Z" transform="translate(0.005 -2.238)"/></svg>