<svg xmlns="http://www.w3.org/2000/svg" width="21.903" height="15.4" viewBox="0 0 21.903 15.4"><defs><style>.a{fill:#fff;}</style></defs><path class="a" d="M22.5,6.91a2.752,2.752,0,0,0-1.936-1.949C18.851,4.5,12,4.5,12,4.5s-6.849,0-8.557.461A2.752,2.752,0,0,0,1.508,6.91a28.871,28.871,0,0,0-.458,5.306,28.871,28.871,0,0,0,.458,5.306A2.711,2.711,0,0,0,3.444,19.44C5.152,19.9,12,19.9,12,19.9s6.849,0,8.557-.461A2.711,2.711,0,0,0,22.5,17.522a28.871,28.871,0,0,0,.458-5.306A28.871,28.871,0,0,0,22.5,6.91ZM9.761,15.472V8.959l5.725,3.257L9.761,15.472Z" transform="translate(-1.05 -4.5)"/></svg>