<svg xmlns="http://www.w3.org/2000/svg" width="17.967" height="17.967" viewBox="0 0 17.967 17.967"><defs><style>.a{fill:#fff;}</style></defs><path class="a" d="M16.042,2.25H1.925A1.925,1.925,0,0,0,0,4.175V18.292a1.925,1.925,0,0,0,1.925,1.925h5.5V14.109H4.9V11.234H7.43V9.042a3.509,3.509,0,0,1,3.757-3.869,15.307,15.307,0,0,1,2.227.194V7.813H12.159a1.438,1.438,0,0,0-1.621,1.553v1.867H13.3l-.441,2.875H10.538v6.108h5.5a1.925,1.925,0,0,0,1.925-1.925V4.175A1.925,1.925,0,0,0,16.042,2.25Z" transform="translate(0 -2.25)"/></svg>