<svg xmlns="http://www.w3.org/2000/svg" width="49" height="35.324" viewBox="0 0 49 35.324"><defs><style>.a{fill:none;stroke:#000;stroke-linecap:round;stroke-linejoin:round;stroke-width:3px;}</style></defs><g transform="translate(0.001 -4.5)"><path class="a" d="M46.536,11.06A5.812,5.812,0,0,0,42.48,6.878C38.884,6,24.5,6,24.5,6S10.114,6,6.518,6.962a5.812,5.812,0,0,0-4.056,4.182A60.634,60.634,0,0,0,1.5,22.2a60.633,60.633,0,0,0,.962,11.144,5.812,5.812,0,0,0,4.056,4.014c3.6.962,17.981.962,17.981.962s14.385,0,17.981-.962a5.812,5.812,0,0,0,4.056-4.182A60.633,60.633,0,0,0,47.5,22.2a60.632,60.632,0,0,0-.962-11.144Z" transform="translate(0 0)"/><path class="a" d="M14.625,26.356l11.988-6.818L14.625,12.72Z" transform="translate(5.188 2.666)"/></g></svg>