<?xml version="1.0" encoding="UTF-8" standalone="no"?>
<!DOCTYPE svg PUBLIC "-//W3C//DTD SVG 1.1//EN"
 "http://www.w3.org/Graphics/SVG/1.1/DTD/svg11.dtd">
<!-- Generated by graphviz version 2.40.1 (20161225.0304)
 -->
<!-- Title: dependencies Pages: 1 -->
<svg width="1743pt" height="211pt"
 viewBox="0.00 0.00 1743.00 211.00" xmlns="http://www.w3.org/2000/svg" xmlns:xlink="http://www.w3.org/1999/xlink">
<g id="graph0" class="graph" transform="scale(1 1) rotate(0) translate(4 207)">
<title>dependencies</title>
<polygon fill="#ffffff" stroke="transparent" points="-4,4 -4,-207 1739,-207 1739,4 -4,4"/>
<text text-anchor="start" x="846.5091" y="-42.4" font-family="sans-serif" font-weight="bold" font-size="14.00" fill="#000000">Legend</text>
<polygon fill="#ffffb3" stroke="transparent" points="633.5,-10 633.5,-30 653.5,-30 653.5,-10 633.5,-10"/>
<text text-anchor="start" x="657.129" y="-15.4" font-family="sans-serif" font-size="14.00" fill="#000000"> &#160;Declarations</text>
<polygon fill="#8dd3c7" stroke="transparent" points="746.5,-10 746.5,-30 766.5,-30 766.5,-10 746.5,-10"/>
<text text-anchor="start" x="770.2251" y="-15.4" font-family="sans-serif" font-size="14.00" fill="#000000"> &#160;Module</text>
<polygon fill="#80b1d3" stroke="transparent" points="832.5,-10 832.5,-30 852.5,-30 852.5,-10 832.5,-10"/>
<text text-anchor="start" x="856.2812" y="-15.4" font-family="sans-serif" font-size="14.00" fill="#000000"> &#160;Bootstrap</text>
<polygon fill="#fdb462" stroke="transparent" points="929.5,-10 929.5,-30 949.5,-30 949.5,-10 929.5,-10"/>
<text text-anchor="start" x="953.1732" y="-15.4" font-family="sans-serif" font-size="14.00" fill="#000000"> &#160;Providers</text>
<polygon fill="#fb8072" stroke="transparent" points="1025.5,-10 1025.5,-30 1045.5,-30 1045.5,-10 1025.5,-10"/>
<text text-anchor="start" x="1049.2258" y="-15.4" font-family="sans-serif" font-size="14.00" fill="#000000"> &#160;Exports</text>
<g id="clust1" class="cluster">
<title>cluster_AdminModule</title>
<polygon fill="none" stroke="#000000" stroke-dasharray="1,5" points="8,-70 8,-195 1727,-195 1727,-70 8,-70"/>
</g>
<g id="clust2" class="cluster">
<title>cluster_AdminModule_declarations</title>
<polygon fill="none" stroke="#000000" points="300,-78 300,-130 1719,-130 1719,-78 300,-78"/>
</g>
<g id="clust11" class="cluster">
<title>cluster_AdminModule_imports</title>
<polygon fill="none" stroke="#000000" points="16,-78 16,-130 292,-130 292,-78 16,-78"/>
</g>
<!-- AdminAktuellComponent -->
<g id="node1" class="node">
<title>AdminAktuellComponent</title>
<polygon fill="#ffffb3" stroke="#000000" points="1711.2133,-122 1548.7867,-122 1548.7867,-86 1711.2133,-86 1711.2133,-122"/>
<text text-anchor="middle" x="1630" y="-99.8" font-family="Times,serif" font-size="14.00" fill="#000000">AdminAktuellComponent</text>
</g>
<!-- AdminModule -->
<g id="node9" class="node">
<title>AdminModule</title>
<polygon fill="#8dd3c7" stroke="#000000" points="860.4386,-187 857.4386,-191 836.4386,-191 833.4386,-187 761.5614,-187 761.5614,-151 860.4386,-151 860.4386,-187"/>
<text text-anchor="middle" x="811" y="-164.8" font-family="Times,serif" font-size="14.00" fill="#000000">AdminModule</text>
</g>
<!-- AdminAktuellComponent&#45;&gt;AdminModule -->
<g id="edge1" class="edge">
<title>AdminAktuellComponent&#45;&gt;AdminModule</title>
<path fill="none" stroke="#000000" d="M1630,-122.0109C1630,-144.4852 1630,-180 1630,-180 1630,-180 870.3877,-180 870.3877,-180"/>
<polygon fill="#000000" stroke="#000000" points="870.3878,-176.5001 860.3877,-180 870.3877,-183.5001 870.3878,-176.5001"/>
</g>
<!-- AdminBiografieComponent -->
<g id="node2" class="node">
<title>AdminBiografieComponent</title>
<polygon fill="#ffffb3" stroke="#000000" points="1530.5884,-122 1357.4116,-122 1357.4116,-86 1530.5884,-86 1530.5884,-122"/>
<text text-anchor="middle" x="1444" y="-99.8" font-family="Times,serif" font-size="14.00" fill="#000000">AdminBiografieComponent</text>
</g>
<!-- AdminBiografieComponent&#45;&gt;AdminModule -->
<g id="edge2" class="edge">
<title>AdminBiografieComponent&#45;&gt;AdminModule</title>
<path fill="none" stroke="#000000" d="M1444,-122.1289C1444,-142.5724 1444,-173 1444,-173 1444,-173 870.4068,-173 870.4068,-173"/>
<polygon fill="#000000" stroke="#000000" points="870.4068,-169.5001 860.4068,-173 870.4068,-176.5001 870.4068,-169.5001"/>
</g>
<!-- AdminGallerieComponent -->
<g id="node3" class="node">
<title>AdminGallerieComponent</title>
<polygon fill="#ffffb3" stroke="#000000" points="1339.8033,-122 1174.1967,-122 1174.1967,-86 1339.8033,-86 1339.8033,-122"/>
<text text-anchor="middle" x="1257" y="-99.8" font-family="Times,serif" font-size="14.00" fill="#000000">AdminGallerieComponent</text>
</g>
<!-- AdminGallerieComponent&#45;&gt;AdminModule -->
<g id="edge3" class="edge">
<title>AdminGallerieComponent&#45;&gt;AdminModule</title>
<path fill="none" stroke="#000000" d="M1257,-122.2667C1257,-140.5552 1257,-166 1257,-166 1257,-166 870.4339,-166 870.4339,-166"/>
<polygon fill="#000000" stroke="#000000" points="870.4339,-162.5001 860.4339,-166 870.4338,-169.5001 870.4339,-162.5001"/>
</g>
<!-- AdminHomeComponent -->
<g id="node4" class="node">
<title>AdminHomeComponent</title>
<polygon fill="#ffffb3" stroke="#000000" points="1156.4326,-122 1001.5674,-122 1001.5674,-86 1156.4326,-86 1156.4326,-122"/>
<text text-anchor="middle" x="1079" y="-99.8" font-family="Times,serif" font-size="14.00" fill="#000000">AdminHomeComponent</text>
</g>
<!-- AdminHomeComponent&#45;&gt;AdminModule -->
<g id="edge4" class="edge">
<title>AdminHomeComponent&#45;&gt;AdminModule</title>
<path fill="none" stroke="#000000" d="M1079,-122.0091C1079,-138.0494 1079,-159 1079,-159 1079,-159 870.4677,-159 870.4677,-159"/>
<polygon fill="#000000" stroke="#000000" points="870.4677,-155.5001 860.4677,-159 870.4676,-162.5001 870.4677,-155.5001"/>
</g>
<!-- AdminKontaktComponent -->
<g id="node5" class="node">
<title>AdminKontaktComponent</title>
<polygon fill="#ffffb3" stroke="#000000" points="983.8229,-122 818.1771,-122 818.1771,-86 983.8229,-86 983.8229,-122"/>
<text text-anchor="middle" x="901" y="-99.8" font-family="Times,serif" font-size="14.00" fill="#000000">AdminKontaktComponent</text>
</g>
<!-- AdminKontaktComponent&#45;&gt;AdminModule -->
<g id="edge5" class="edge">
<title>AdminKontaktComponent&#45;&gt;AdminModule</title>
<path fill="none" stroke="#000000" d="M839.2788,-122.1061C839.2788,-122.1061 839.2788,-140.991 839.2788,-140.991"/>
<polygon fill="#000000" stroke="#000000" points="835.7788,-140.9909 839.2788,-150.991 842.7788,-140.991 835.7788,-140.9909"/>
</g>
<!-- AdminMediaComponent -->
<g id="node6" class="node">
<title>AdminMediaComponent</title>
<polygon fill="#ffffb3" stroke="#000000" points="799.9846,-122 644.0154,-122 644.0154,-86 799.9846,-86 799.9846,-122"/>
<text text-anchor="middle" x="722" y="-99.8" font-family="Times,serif" font-size="14.00" fill="#000000">AdminMediaComponent</text>
</g>
<!-- AdminMediaComponent&#45;&gt;AdminModule -->
<g id="edge6" class="edge">
<title>AdminMediaComponent&#45;&gt;AdminModule</title>
<path fill="none" stroke="#000000" d="M780.8868,-122.1061C780.8868,-122.1061 780.8868,-140.991 780.8868,-140.991"/>
<polygon fill="#000000" stroke="#000000" points="777.3868,-140.9909 780.8868,-150.991 784.3868,-140.991 777.3868,-140.9909"/>
</g>
<!-- AdminSocialComponent -->
<g id="node7" class="node">
<title>AdminSocialComponent</title>
<polygon fill="#ffffb3" stroke="#000000" points="625.7133,-122 470.2867,-122 470.2867,-86 625.7133,-86 625.7133,-122"/>
<text text-anchor="middle" x="548" y="-99.8" font-family="Times,serif" font-size="14.00" fill="#000000">AdminSocialComponent</text>
</g>
<!-- AdminSocialComponent&#45;&gt;AdminModule -->
<g id="edge7" class="edge">
<title>AdminSocialComponent&#45;&gt;AdminModule</title>
<path fill="none" stroke="#000000" d="M548,-122.0091C548,-138.0494 548,-159 548,-159 548,-159 751.5317,-159 751.5317,-159"/>
<polygon fill="#000000" stroke="#000000" points="751.5317,-162.5001 761.5317,-159 751.5317,-155.5001 751.5317,-162.5001"/>
</g>
<!-- AdminVitaComponent -->
<g id="node8" class="node">
<title>AdminVitaComponent</title>
<polygon fill="#ffffb3" stroke="#000000" points="452.323,-122 307.677,-122 307.677,-86 452.323,-86 452.323,-122"/>
<text text-anchor="middle" x="380" y="-99.8" font-family="Times,serif" font-size="14.00" fill="#000000">AdminVitaComponent</text>
</g>
<!-- AdminVitaComponent&#45;&gt;AdminModule -->
<g id="edge8" class="edge">
<title>AdminVitaComponent&#45;&gt;AdminModule</title>
<path fill="none" stroke="#000000" d="M380,-122.2667C380,-140.5552 380,-166 380,-166 380,-166 751.5588,-166 751.5588,-166"/>
<polygon fill="#000000" stroke="#000000" points="751.5589,-169.5001 761.5588,-166 751.5588,-162.5001 751.5589,-169.5001"/>
</g>
<!-- AdminRoutingModule -->
<g id="node10" class="node">
<title>AdminRoutingModule</title>
<polygon fill="#8dd3c7" stroke="#000000" points="283.5561,-122 280.5561,-126 259.5561,-126 256.5561,-122 140.4439,-122 140.4439,-86 283.5561,-86 283.5561,-122"/>
<text text-anchor="middle" x="212" y="-99.8" font-family="Times,serif" font-size="14.00" fill="#000000">AdminRoutingModule</text>
</g>
<!-- AdminRoutingModule&#45;&gt;AdminModule -->
<g id="edge9" class="edge">
<title>AdminRoutingModule&#45;&gt;AdminModule</title>
<path fill="none" stroke="#000000" d="M212,-122.1289C212,-142.5724 212,-173 212,-173 212,-173 751.7268,-173 751.7268,-173"/>
<polygon fill="#000000" stroke="#000000" points="751.7268,-176.5001 761.7268,-173 751.7268,-169.5001 751.7268,-176.5001"/>
</g>
<!-- SharedModule -->
<g id="node11" class="node">
<title>SharedModule</title>
<polygon fill="#8dd3c7" stroke="#000000" points="122.4231,-122 119.4231,-126 98.4231,-126 95.4231,-122 23.5769,-122 23.5769,-86 122.4231,-86 122.4231,-122"/>
<text text-anchor="middle" x="73" y="-99.8" font-family="Times,serif" font-size="14.00" fill="#000000">SharedModule</text>
</g>
<!-- SharedModule&#45;&gt;AdminModule -->
<g id="edge10" class="edge">
<title>SharedModule&#45;&gt;AdminModule</title>
<path fill="none" stroke="#000000" d="M73,-122.0109C73,-144.4852 73,-180 73,-180 73,-180 751.7194,-180 751.7194,-180"/>
<polygon fill="#000000" stroke="#000000" points="751.7194,-183.5001 761.7194,-180 751.7193,-176.5001 751.7194,-183.5001"/>
</g>
</g>
</svg>
