<?xml version="1.0" encoding="UTF-8" standalone="no"?>
<!DOCTYPE svg PUBLIC "-//W3C//DTD SVG 1.1//EN"
 "http://www.w3.org/Graphics/SVG/1.1/DTD/svg11.dtd">
<!-- Generated by graphviz version 2.40.1 (20161225.0304)
 -->
<!-- Title: dependencies Pages: 1 -->
<svg width="1901pt" height="211pt"
 viewBox="0.00 0.00 1901.00 211.00" xmlns="http://www.w3.org/2000/svg" xmlns:xlink="http://www.w3.org/1999/xlink">
<g id="graph0" class="graph" transform="scale(1 1) rotate(0) translate(4 207)">
<title>dependencies</title>
<polygon fill="#ffffff" stroke="transparent" points="-4,4 -4,-207 1897,-207 1897,4 -4,4"/>
<text text-anchor="start" x="925.5091" y="-42.4" font-family="sans-serif" font-weight="bold" font-size="14.00" fill="#000000">Legend</text>
<polygon fill="#ffffb3" stroke="transparent" points="712.5,-10 712.5,-30 732.5,-30 732.5,-10 712.5,-10"/>
<text text-anchor="start" x="736.129" y="-15.4" font-family="sans-serif" font-size="14.00" fill="#000000"> &#160;Declarations</text>
<polygon fill="#8dd3c7" stroke="transparent" points="825.5,-10 825.5,-30 845.5,-30 845.5,-10 825.5,-10"/>
<text text-anchor="start" x="849.2251" y="-15.4" font-family="sans-serif" font-size="14.00" fill="#000000"> &#160;Module</text>
<polygon fill="#80b1d3" stroke="transparent" points="911.5,-10 911.5,-30 931.5,-30 931.5,-10 911.5,-10"/>
<text text-anchor="start" x="935.2812" y="-15.4" font-family="sans-serif" font-size="14.00" fill="#000000"> &#160;Bootstrap</text>
<polygon fill="#fdb462" stroke="transparent" points="1008.5,-10 1008.5,-30 1028.5,-30 1028.5,-10 1008.5,-10"/>
<text text-anchor="start" x="1032.1732" y="-15.4" font-family="sans-serif" font-size="14.00" fill="#000000"> &#160;Providers</text>
<polygon fill="#fb8072" stroke="transparent" points="1104.5,-10 1104.5,-30 1124.5,-30 1124.5,-10 1104.5,-10"/>
<text text-anchor="start" x="1128.2258" y="-15.4" font-family="sans-serif" font-size="14.00" fill="#000000"> &#160;Exports</text>
<g id="clust1" class="cluster">
<title>cluster_HomeModule</title>
<polygon fill="none" stroke="#000000" stroke-dasharray="1,5" points="8,-70 8,-195 1885,-195 1885,-70 8,-70"/>
</g>
<g id="clust2" class="cluster">
<title>cluster_HomeModule_declarations</title>
<polygon fill="none" stroke="#000000" points="295,-78 295,-130 1877,-130 1877,-78 295,-78"/>
</g>
<g id="clust14" class="cluster">
<title>cluster_HomeModule_imports</title>
<polygon fill="none" stroke="#000000" points="16,-78 16,-130 287,-130 287,-78 16,-78"/>
</g>
<!-- BiografieComponent -->
<g id="node1" class="node">
<title>BiografieComponent</title>
<polygon fill="#ffffb3" stroke="#000000" points="1869.2008,-122 1734.7992,-122 1734.7992,-86 1869.2008,-86 1869.2008,-122"/>
<text text-anchor="middle" x="1802" y="-99.8" font-family="Times,serif" font-size="14.00" fill="#000000">BiografieComponent</text>
</g>
<!-- HomeModule -->
<g id="node12" class="node">
<title>HomeModule</title>
<polygon fill="#8dd3c7" stroke="#000000" points="992.7619,-187 989.7619,-191 968.7619,-191 965.7619,-187 899.2381,-187 899.2381,-151 992.7619,-151 992.7619,-187"/>
<text text-anchor="middle" x="946" y="-164.8" font-family="Times,serif" font-size="14.00" fill="#000000">HomeModule</text>
</g>
<!-- BiografieComponent&#45;&gt;HomeModule -->
<g id="edge1" class="edge">
<title>BiografieComponent&#45;&gt;HomeModule</title>
<path fill="none" stroke="#000000" d="M1802,-122.0908C1802,-145.1328 1802,-182 1802,-182 1802,-182 1002.9354,-182 1002.9354,-182"/>
<polygon fill="#000000" stroke="#000000" points="1002.9355,-178.5001 992.9354,-182 1002.9354,-185.5001 1002.9355,-178.5001"/>
</g>
<!-- EventsComponent -->
<g id="node2" class="node">
<title>EventsComponent</title>
<polygon fill="#ffffb3" stroke="#000000" points="1716.9356,-122 1597.0644,-122 1597.0644,-86 1716.9356,-86 1716.9356,-122"/>
<text text-anchor="middle" x="1657" y="-99.8" font-family="Times,serif" font-size="14.00" fill="#000000">EventsComponent</text>
</g>
<!-- EventsComponent&#45;&gt;HomeModule -->
<g id="edge2" class="edge">
<title>EventsComponent&#45;&gt;HomeModule</title>
<path fill="none" stroke="#000000" d="M1657,-122.0449C1657,-143.6623 1657,-177 1657,-177 1657,-177 1002.9257,-177 1002.9257,-177"/>
<polygon fill="#000000" stroke="#000000" points="1002.9257,-173.5001 992.9257,-177 1002.9256,-180.5001 1002.9257,-173.5001"/>
</g>
<!-- GalleryComponent -->
<g id="node3" class="node">
<title>GalleryComponent</title>
<polygon fill="#ffffb3" stroke="#000000" points="1579.8104,-122 1456.1896,-122 1456.1896,-86 1579.8104,-86 1579.8104,-122"/>
<text text-anchor="middle" x="1518" y="-99.8" font-family="Times,serif" font-size="14.00" fill="#000000">GalleryComponent</text>
</g>
<!-- GalleryComponent&#45;&gt;HomeModule -->
<g id="edge3" class="edge">
<title>GalleryComponent&#45;&gt;HomeModule</title>
<path fill="none" stroke="#000000" d="M1518,-122.2228C1518,-142.3652 1518,-172 1518,-172 1518,-172 1002.8092,-172 1002.8092,-172"/>
<polygon fill="#000000" stroke="#000000" points="1002.8092,-168.5001 992.8092,-172 1002.8091,-175.5001 1002.8092,-168.5001"/>
</g>
<!-- HomeComponent -->
<g id="node4" class="node">
<title>HomeComponent</title>
<polygon fill="#ffffb3" stroke="#000000" points="1438.5451,-122 1323.4549,-122 1323.4549,-86 1438.5451,-86 1438.5451,-122"/>
<text text-anchor="middle" x="1381" y="-99.8" font-family="Times,serif" font-size="14.00" fill="#000000">HomeComponent</text>
</g>
<!-- HomeComponent&#45;&gt;HomeModule -->
<g id="edge4" class="edge">
<title>HomeComponent&#45;&gt;HomeModule</title>
<path fill="none" stroke="#000000" d="M1381,-122.2222C1381,-140.8285 1381,-167 1381,-167 1381,-167 1002.9659,-167 1002.9659,-167"/>
<polygon fill="#000000" stroke="#000000" points="1002.966,-163.5001 992.9659,-167 1002.9659,-170.5001 1002.966,-163.5001"/>
</g>
<!-- LightboxComponent -->
<g id="node5" class="node">
<title>LightboxComponent</title>
<polygon fill="#ffffb3" stroke="#000000" points="1305.1666,-122 1172.8334,-122 1172.8334,-86 1305.1666,-86 1305.1666,-122"/>
<text text-anchor="middle" x="1239" y="-99.8" font-family="Times,serif" font-size="14.00" fill="#000000">LightboxComponent</text>
</g>
<!-- LightboxComponent&#45;&gt;HomeModule -->
<g id="edge5" class="edge">
<title>LightboxComponent&#45;&gt;HomeModule</title>
<path fill="none" stroke="#000000" d="M1239,-122.0336C1239,-139.0597 1239,-162 1239,-162 1239,-162 1003.0755,-162 1003.0755,-162"/>
<polygon fill="#000000" stroke="#000000" points="1003.0756,-158.5001 993.0755,-162 1003.0755,-165.5001 1003.0756,-158.5001"/>
</g>
<!-- MediaComponent -->
<g id="node6" class="node">
<title>MediaComponent</title>
<polygon fill="#ffffb3" stroke="#000000" points="1154.5968,-122 1037.4032,-122 1037.4032,-86 1154.5968,-86 1154.5968,-122"/>
<text text-anchor="middle" x="1096" y="-99.8" font-family="Times,serif" font-size="14.00" fill="#000000">MediaComponent</text>
</g>
<!-- MediaComponent&#45;&gt;HomeModule -->
<g id="edge6" class="edge">
<title>MediaComponent&#45;&gt;HomeModule</title>
<path fill="none" stroke="#000000" d="M1096,-122.2396C1096,-137.5706 1096,-157 1096,-157 1096,-157 1003.0494,-157 1003.0494,-157"/>
<polygon fill="#000000" stroke="#000000" points="1003.0494,-153.5001 993.0494,-157 1003.0493,-160.5001 1003.0494,-153.5001"/>
</g>
<!-- MediaViewComponent -->
<g id="node7" class="node">
<title>MediaViewComponent</title>
<polygon fill="#ffffb3" stroke="#000000" points="1019.9158,-122 872.0842,-122 872.0842,-86 1019.9158,-86 1019.9158,-122"/>
<text text-anchor="middle" x="946" y="-99.8" font-family="Times,serif" font-size="14.00" fill="#000000">MediaViewComponent</text>
</g>
<!-- MediaViewComponent&#45;&gt;HomeModule -->
<g id="edge7" class="edge">
<title>MediaViewComponent&#45;&gt;HomeModule</title>
<path fill="none" stroke="#000000" d="M946,-122.1061C946,-122.1061 946,-140.991 946,-140.991"/>
<polygon fill="#000000" stroke="#000000" points="942.5001,-140.9909 946,-150.991 949.5001,-140.991 942.5001,-140.9909"/>
</g>
<!-- NewsComponent -->
<g id="node8" class="node">
<title>NewsComponent</title>
<polygon fill="#ffffb3" stroke="#000000" points="854.705,-122 741.295,-122 741.295,-86 854.705,-86 854.705,-122"/>
<text text-anchor="middle" x="798" y="-99.8" font-family="Times,serif" font-size="14.00" fill="#000000">NewsComponent</text>
</g>
<!-- NewsComponent&#45;&gt;HomeModule -->
<g id="edge8" class="edge">
<title>NewsComponent&#45;&gt;HomeModule</title>
<path fill="none" stroke="#000000" d="M798,-122.2396C798,-137.5706 798,-157 798,-157 798,-157 889.1719,-157 889.1719,-157"/>
<polygon fill="#000000" stroke="#000000" points="889.1719,-160.5001 899.1719,-157 889.1718,-153.5001 889.1719,-160.5001"/>
</g>
<!-- PersonalDataComponent -->
<g id="node9" class="node">
<title>PersonalDataComponent</title>
<polygon fill="#ffffb3" stroke="#000000" points="722.9664,-122 567.0336,-122 567.0336,-86 722.9664,-86 722.9664,-122"/>
<text text-anchor="middle" x="645" y="-99.8" font-family="Times,serif" font-size="14.00" fill="#000000">PersonalDataComponent</text>
</g>
<!-- PersonalDataComponent&#45;&gt;HomeModule -->
<g id="edge9" class="edge">
<title>PersonalDataComponent&#45;&gt;HomeModule</title>
<path fill="none" stroke="#000000" d="M645,-122.0336C645,-139.0597 645,-162 645,-162 645,-162 888.9688,-162 888.9688,-162"/>
<polygon fill="#000000" stroke="#000000" points="888.9688,-165.5001 898.9688,-162 888.9687,-158.5001 888.9688,-165.5001"/>
</g>
<!-- SocialsComponent -->
<g id="node10" class="node">
<title>SocialsComponent</title>
<polygon fill="#ffffb3" stroke="#000000" points="548.7702,-122 427.2298,-122 427.2298,-86 548.7702,-86 548.7702,-122"/>
<text text-anchor="middle" x="488" y="-99.8" font-family="Times,serif" font-size="14.00" fill="#000000">SocialsComponent</text>
</g>
<!-- SocialsComponent&#45;&gt;HomeModule -->
<g id="edge10" class="edge">
<title>SocialsComponent&#45;&gt;HomeModule</title>
<path fill="none" stroke="#000000" d="M488,-122.2222C488,-140.8285 488,-167 488,-167 488,-167 889.1383,-167 889.1383,-167"/>
<polygon fill="#000000" stroke="#000000" points="889.1384,-170.5001 899.1383,-167 889.1383,-163.5001 889.1384,-170.5001"/>
</g>
<!-- VitaComponent -->
<g id="node11" class="node">
<title>VitaComponent</title>
<polygon fill="#ffffb3" stroke="#000000" points="408.9357,-122 303.0643,-122 303.0643,-86 408.9357,-86 408.9357,-122"/>
<text text-anchor="middle" x="356" y="-99.8" font-family="Times,serif" font-size="14.00" fill="#000000">VitaComponent</text>
</g>
<!-- VitaComponent&#45;&gt;HomeModule -->
<g id="edge11" class="edge">
<title>VitaComponent&#45;&gt;HomeModule</title>
<path fill="none" stroke="#000000" d="M356,-122.2228C356,-142.3652 356,-172 356,-172 356,-172 889.2105,-172 889.2105,-172"/>
<polygon fill="#000000" stroke="#000000" points="889.2106,-175.5001 899.2105,-172 889.2105,-168.5001 889.2106,-175.5001"/>
</g>
<!-- HomeRoutingModule -->
<g id="node13" class="node">
<title>HomeRoutingModule</title>
<polygon fill="#8dd3c7" stroke="#000000" points="279.3795,-122 276.3795,-126 255.3795,-126 252.3795,-122 140.6205,-122 140.6205,-86 279.3795,-86 279.3795,-122"/>
<text text-anchor="middle" x="210" y="-99.8" font-family="Times,serif" font-size="14.00" fill="#000000">HomeRoutingModule</text>
</g>
<!-- HomeRoutingModule&#45;&gt;HomeModule -->
<g id="edge12" class="edge">
<title>HomeRoutingModule&#45;&gt;HomeModule</title>
<path fill="none" stroke="#000000" d="M210,-122.0449C210,-143.6623 210,-177 210,-177 210,-177 889.1213,-177 889.1213,-177"/>
<polygon fill="#000000" stroke="#000000" points="889.1213,-180.5001 899.1213,-177 889.1212,-173.5001 889.1213,-180.5001"/>
</g>
<!-- SharedModule -->
<g id="node14" class="node">
<title>SharedModule</title>
<polygon fill="#8dd3c7" stroke="#000000" points="122.4231,-122 119.4231,-126 98.4231,-126 95.4231,-122 23.5769,-122 23.5769,-86 122.4231,-86 122.4231,-122"/>
<text text-anchor="middle" x="73" y="-99.8" font-family="Times,serif" font-size="14.00" fill="#000000">SharedModule</text>
</g>
<!-- SharedModule&#45;&gt;HomeModule -->
<g id="edge13" class="edge">
<title>SharedModule&#45;&gt;HomeModule</title>
<path fill="none" stroke="#000000" d="M73,-122.0908C73,-145.1328 73,-182 73,-182 73,-182 889.0637,-182 889.0637,-182"/>
<polygon fill="#000000" stroke="#000000" points="889.0638,-185.5001 899.0637,-182 889.0637,-178.5001 889.0638,-185.5001"/>
</g>
</g>
</svg>
