<?xml version="1.0" encoding="UTF-8" standalone="no"?>
<!DOCTYPE svg PUBLIC "-//W3C//DTD SVG 1.1//EN"
 "http://www.w3.org/Graphics/SVG/1.1/DTD/svg11.dtd">
<!-- Generated by graphviz version 2.40.1 (20161225.0304)
 -->
<!-- Title: dependencies Pages: 1 -->
<svg width="695pt" height="284pt"
 viewBox="0.00 0.00 695.00 284.00" xmlns="http://www.w3.org/2000/svg" xmlns:xlink="http://www.w3.org/1999/xlink">
<g id="graph0" class="graph" transform="scale(1 1) rotate(0) translate(4 280)">
<title>dependencies</title>
<polygon fill="#ffffff" stroke="transparent" points="-4,4 -4,-280 691,-280 691,4 -4,4"/>
<text text-anchor="start" x="322.5091" y="-42.4" font-family="sans-serif" font-weight="bold" font-size="14.00" fill="#000000">Legend</text>
<polygon fill="#ffffb3" stroke="transparent" points="109.5,-10 109.5,-30 129.5,-30 129.5,-10 109.5,-10"/>
<text text-anchor="start" x="133.129" y="-15.4" font-family="sans-serif" font-size="14.00" fill="#000000"> &#160;Declarations</text>
<polygon fill="#8dd3c7" stroke="transparent" points="222.5,-10 222.5,-30 242.5,-30 242.5,-10 222.5,-10"/>
<text text-anchor="start" x="246.2251" y="-15.4" font-family="sans-serif" font-size="14.00" fill="#000000"> &#160;Module</text>
<polygon fill="#80b1d3" stroke="transparent" points="308.5,-10 308.5,-30 328.5,-30 328.5,-10 308.5,-10"/>
<text text-anchor="start" x="332.2812" y="-15.4" font-family="sans-serif" font-size="14.00" fill="#000000"> &#160;Bootstrap</text>
<polygon fill="#fdb462" stroke="transparent" points="405.5,-10 405.5,-30 425.5,-30 425.5,-10 405.5,-10"/>
<text text-anchor="start" x="429.1732" y="-15.4" font-family="sans-serif" font-size="14.00" fill="#000000"> &#160;Providers</text>
<polygon fill="#fb8072" stroke="transparent" points="501.5,-10 501.5,-30 521.5,-30 521.5,-10 501.5,-10"/>
<text text-anchor="start" x="525.2258" y="-15.4" font-family="sans-serif" font-size="14.00" fill="#000000"> &#160;Exports</text>
<g id="clust1" class="cluster">
<title>cluster_AppModule</title>
<polygon fill="none" stroke="#000000" stroke-dasharray="1,5" points="8,-70 8,-268 679,-268 679,-70 8,-70"/>
</g>
<g id="clust2" class="cluster">
<title>cluster_AppModule_declarations</title>
<polygon fill="none" stroke="#000000" points="273,-78 273,-130 671,-130 671,-78 273,-78"/>
</g>
<g id="clust6" class="cluster">
<title>cluster_AppModule_imports</title>
<polygon fill="none" stroke="#000000" points="16,-78 16,-130 265,-130 265,-78 16,-78"/>
</g>
<g id="clust8" class="cluster">
<title>cluster_AppModule_bootstrap</title>
<polygon fill="none" stroke="#000000" points="280,-208 280,-260 404,-260 404,-208 280,-208"/>
</g>
<!-- AppComponent -->
<g id="node1" class="node">
<title>AppComponent</title>
<polygon fill="#ffffb3" stroke="#000000" points="662.9399,-122 557.0601,-122 557.0601,-86 662.9399,-86 662.9399,-122"/>
<text text-anchor="middle" x="610" y="-99.8" font-family="Times,serif" font-size="14.00" fill="#000000">AppComponent</text>
</g>
<!-- AppModule -->
<g id="node4" class="node">
<title>AppModule</title>
<polygon fill="#8dd3c7" stroke="#000000" points="383.6571,-187 380.6571,-191 359.6571,-191 356.6571,-187 300.3429,-187 300.3429,-151 383.6571,-151 383.6571,-187"/>
<text text-anchor="middle" x="342" y="-164.8" font-family="Times,serif" font-size="14.00" fill="#000000">AppModule</text>
</g>
<!-- AppComponent&#45;&gt;AppModule -->
<g id="edge1" class="edge">
<title>AppComponent&#45;&gt;AppModule</title>
<path fill="none" stroke="#000000" d="M610,-122.2843C610,-143.3211 610,-175 610,-175 610,-175 393.875,-175 393.875,-175"/>
<polygon fill="#000000" stroke="#000000" points="393.875,-171.5001 383.875,-175 393.875,-178.5001 393.875,-171.5001"/>
</g>
<!-- FooterComponent -->
<g id="node2" class="node">
<title>FooterComponent</title>
<polygon fill="#ffffb3" stroke="#000000" points="538.8809,-122 421.1191,-122 421.1191,-86 538.8809,-86 538.8809,-122"/>
<text text-anchor="middle" x="480" y="-99.8" font-family="Times,serif" font-size="14.00" fill="#000000">FooterComponent</text>
</g>
<!-- FooterComponent&#45;&gt;AppModule -->
<g id="edge2" class="edge">
<title>FooterComponent&#45;&gt;AppModule</title>
<path fill="none" stroke="#000000" d="M480,-122.0225C480,-139.3734 480,-163 480,-163 480,-163 393.779,-163 393.779,-163"/>
<polygon fill="#000000" stroke="#000000" points="393.7791,-159.5001 383.779,-163 393.779,-166.5001 393.7791,-159.5001"/>
</g>
<!-- HeaderComponent -->
<g id="node3" class="node">
<title>HeaderComponent</title>
<polygon fill="#ffffb3" stroke="#000000" points="402.7437,-122 281.2563,-122 281.2563,-86 402.7437,-86 402.7437,-122"/>
<text text-anchor="middle" x="342" y="-99.8" font-family="Times,serif" font-size="14.00" fill="#000000">HeaderComponent</text>
</g>
<!-- HeaderComponent&#45;&gt;AppModule -->
<g id="edge3" class="edge">
<title>HeaderComponent&#45;&gt;AppModule</title>
<path fill="none" stroke="#000000" d="M342,-122.1061C342,-122.1061 342,-140.991 342,-140.991"/>
<polygon fill="#000000" stroke="#000000" points="338.5001,-140.9909 342,-150.991 345.5001,-140.991 338.5001,-140.9909"/>
</g>
<!-- AppComponent  -->
<g id="node7" class="node">
<title>AppComponent </title>
<polygon fill="#80b1d3" stroke="#000000" points="396.439,-252 287.561,-252 287.561,-216 396.439,-216 396.439,-252"/>
<text text-anchor="middle" x="342" y="-229.8" font-family="Times,serif" font-size="14.00" fill="#000000">AppComponent </text>
</g>
<!-- AppModule&#45;&gt;AppComponent  -->
<g id="edge6" class="edge">
<title>AppModule&#45;&gt;AppComponent </title>
<path fill="none" stroke="#000000" stroke-dasharray="1,5" d="M342,-187.1061C342,-187.1061 342,-205.991 342,-205.991"/>
<polygon fill="#000000" stroke="#000000" points="338.5001,-205.9909 342,-215.991 345.5001,-205.991 338.5001,-205.9909"/>
</g>
<!-- AppRoutingModule -->
<g id="node5" class="node">
<title>AppRoutingModule</title>
<polygon fill="#8dd3c7" stroke="#000000" points="257.2744,-122 254.2744,-126 233.2744,-126 230.2744,-122 128.7256,-122 128.7256,-86 257.2744,-86 257.2744,-122"/>
<text text-anchor="middle" x="193" y="-99.8" font-family="Times,serif" font-size="14.00" fill="#000000">AppRoutingModule</text>
</g>
<!-- AppRoutingModule&#45;&gt;AppModule -->
<g id="edge4" class="edge">
<title>AppRoutingModule&#45;&gt;AppModule</title>
<path fill="none" stroke="#000000" d="M193,-122.0225C193,-139.3734 193,-163 193,-163 193,-163 290.0987,-163 290.0987,-163"/>
<polygon fill="#000000" stroke="#000000" points="290.0987,-166.5001 300.0987,-163 290.0986,-159.5001 290.0987,-166.5001"/>
</g>
<!-- CoreModule -->
<g id="node6" class="node">
<title>CoreModule</title>
<polygon fill="#8dd3c7" stroke="#000000" points="110.2619,-122 107.2619,-126 86.2619,-126 83.2619,-122 23.7381,-122 23.7381,-86 110.2619,-86 110.2619,-122"/>
<text text-anchor="middle" x="67" y="-99.8" font-family="Times,serif" font-size="14.00" fill="#000000">CoreModule</text>
</g>
<!-- CoreModule&#45;&gt;AppModule -->
<g id="edge5" class="edge">
<title>CoreModule&#45;&gt;AppModule</title>
<path fill="none" stroke="#000000" d="M67,-122.2843C67,-143.3211 67,-175 67,-175 67,-175 290.2334,-175 290.2334,-175"/>
<polygon fill="#000000" stroke="#000000" points="290.2335,-178.5001 300.2334,-175 290.2334,-171.5001 290.2335,-178.5001"/>
</g>
</g>
</svg>
