<?xml version="1.0" encoding="UTF-8" standalone="no"?>
<!DOCTYPE svg PUBLIC "-//W3C//DTD SVG 1.1//EN"
 "http://www.w3.org/Graphics/SVG/1.1/DTD/svg11.dtd">
<!-- Generated by graphviz version 2.40.1 (20161225.0304)
 -->
<!-- Title: dependencies Pages: 1 -->
<svg width="4506pt" height="284pt"
 viewBox="0.00 0.00 4506.00 284.00" xmlns="http://www.w3.org/2000/svg" xmlns:xlink="http://www.w3.org/1999/xlink">
<g id="graph0" class="graph" transform="scale(1 1) rotate(0) translate(4 280)">
<title>dependencies</title>
<polygon fill="#ffffff" stroke="transparent" points="-4,4 -4,-280 4502,-280 4502,4 -4,4"/>
<text text-anchor="start" x="2228.0091" y="-42.4" font-family="sans-serif" font-weight="bold" font-size="14.00" fill="#000000">Legend</text>
<polygon fill="#ffffb3" stroke="transparent" points="2015,-10 2015,-30 2035,-30 2035,-10 2015,-10"/>
<text text-anchor="start" x="2038.629" y="-15.4" font-family="sans-serif" font-size="14.00" fill="#000000"> &#160;Declarations</text>
<polygon fill="#8dd3c7" stroke="transparent" points="2128,-10 2128,-30 2148,-30 2148,-10 2128,-10"/>
<text text-anchor="start" x="2151.7251" y="-15.4" font-family="sans-serif" font-size="14.00" fill="#000000"> &#160;Module</text>
<polygon fill="#80b1d3" stroke="transparent" points="2214,-10 2214,-30 2234,-30 2234,-10 2214,-10"/>
<text text-anchor="start" x="2237.7812" y="-15.4" font-family="sans-serif" font-size="14.00" fill="#000000"> &#160;Bootstrap</text>
<polygon fill="#fdb462" stroke="transparent" points="2311,-10 2311,-30 2331,-30 2331,-10 2311,-10"/>
<text text-anchor="start" x="2334.6732" y="-15.4" font-family="sans-serif" font-size="14.00" fill="#000000"> &#160;Providers</text>
<polygon fill="#fb8072" stroke="transparent" points="2407,-10 2407,-30 2427,-30 2427,-10 2407,-10"/>
<text text-anchor="start" x="2430.7258" y="-15.4" font-family="sans-serif" font-size="14.00" fill="#000000"> &#160;Exports</text>
<g id="clust1" class="cluster">
<title>cluster_AdminModule</title>
<polygon fill="none" stroke="#000000" stroke-dasharray="1,5" points="8,-70 8,-195 1727,-195 1727,-70 8,-70"/>
</g>
<g id="clust2" class="cluster">
<title>cluster_AdminModule_declarations</title>
<polygon fill="none" stroke="#000000" points="16,-78 16,-130 1435,-130 1435,-78 16,-78"/>
</g>
<g id="clust11" class="cluster">
<title>cluster_AdminModule_imports</title>
<polygon fill="none" stroke="#000000" points="1443,-78 1443,-130 1719,-130 1719,-78 1443,-78"/>
</g>
<g id="clust21" class="cluster">
<title>cluster_AppModule</title>
<polygon fill="none" stroke="#000000" stroke-dasharray="1,5" points="3819,-70 3819,-268 4490,-268 4490,-70 3819,-70"/>
</g>
<g id="clust22" class="cluster">
<title>cluster_AppModule_declarations</title>
<polygon fill="none" stroke="#000000" points="4084,-78 4084,-130 4482,-130 4482,-78 4084,-78"/>
</g>
<g id="clust26" class="cluster">
<title>cluster_AppModule_imports</title>
<polygon fill="none" stroke="#000000" points="3827,-78 3827,-130 4076,-130 4076,-78 3827,-78"/>
</g>
<g id="clust28" class="cluster">
<title>cluster_AppModule_bootstrap</title>
<polygon fill="none" stroke="#000000" points="4089,-208 4089,-260 4213,-260 4213,-208 4089,-208"/>
</g>
<g id="clust42" class="cluster">
<title>cluster_HomeModule</title>
<polygon fill="none" stroke="#000000" stroke-dasharray="1,5" points="1735,-70 1735,-195 3495,-195 3495,-70 1735,-70"/>
</g>
<g id="clust43" class="cluster">
<title>cluster_HomeModule_declarations</title>
<polygon fill="none" stroke="#000000" points="1905,-78 1905,-130 3487,-130 3487,-78 1905,-78"/>
</g>
<g id="clust55" class="cluster">
<title>cluster_HomeModule_imports</title>
<polygon fill="none" stroke="#000000" points="1743,-78 1743,-130 1897,-130 1897,-78 1743,-78"/>
</g>
<g id="clust65" class="cluster">
<title>cluster_LoginModule</title>
<polygon fill="none" stroke="#000000" stroke-dasharray="1,5" points="3503,-70 3503,-195 3811,-195 3811,-70 3503,-70"/>
</g>
<g id="clust66" class="cluster">
<title>cluster_LoginModule_declarations</title>
<polygon fill="none" stroke="#000000" points="3673,-78 3673,-130 3803,-130 3803,-78 3673,-78"/>
</g>
<g id="clust68" class="cluster">
<title>cluster_LoginModule_imports</title>
<polygon fill="none" stroke="#000000" points="3511,-78 3511,-130 3665,-130 3665,-78 3511,-78"/>
</g>
<!-- AdminAktuellComponent -->
<g id="node1" class="node">
<title>AdminAktuellComponent</title>
<polygon fill="#ffffb3" stroke="#000000" points="1091.2133,-122 928.7867,-122 928.7867,-86 1091.2133,-86 1091.2133,-122"/>
<text text-anchor="middle" x="1010" y="-99.8" font-family="Times,serif" font-size="14.00" fill="#000000">AdminAktuellComponent</text>
</g>
<!-- AdminModule -->
<g id="node9" class="node">
<title>AdminModule</title>
<polygon fill="#8dd3c7" stroke="#000000" points="966.4386,-187 963.4386,-191 942.4386,-191 939.4386,-187 867.5614,-187 867.5614,-151 966.4386,-151 966.4386,-187"/>
<text text-anchor="middle" x="917" y="-164.8" font-family="Times,serif" font-size="14.00" fill="#000000">AdminModule</text>
</g>
<!-- AdminAktuellComponent&#45;&gt;AdminModule -->
<g id="edge1" class="edge">
<title>AdminAktuellComponent&#45;&gt;AdminModule</title>
<path fill="none" stroke="#000000" d="M947.5561,-122.1061C947.5561,-122.1061 947.5561,-140.991 947.5561,-140.991"/>
<polygon fill="#000000" stroke="#000000" points="944.0562,-140.9909 947.5561,-150.991 951.0562,-140.991 944.0562,-140.9909"/>
</g>
<!-- AdminBiografieComponent -->
<g id="node2" class="node">
<title>AdminBiografieComponent</title>
<polygon fill="#ffffb3" stroke="#000000" points="910.5884,-122 737.4116,-122 737.4116,-86 910.5884,-86 910.5884,-122"/>
<text text-anchor="middle" x="824" y="-99.8" font-family="Times,serif" font-size="14.00" fill="#000000">AdminBiografieComponent</text>
</g>
<!-- AdminBiografieComponent&#45;&gt;AdminModule -->
<g id="edge2" class="edge">
<title>AdminBiografieComponent&#45;&gt;AdminModule</title>
<path fill="none" stroke="#000000" d="M889.1627,-122.1061C889.1627,-122.1061 889.1627,-140.991 889.1627,-140.991"/>
<polygon fill="#000000" stroke="#000000" points="885.6628,-140.9909 889.1627,-150.991 892.6628,-140.991 885.6628,-140.9909"/>
</g>
<!-- AdminGallerieComponent -->
<g id="node3" class="node">
<title>AdminGallerieComponent</title>
<polygon fill="#ffffb3" stroke="#000000" points="719.8033,-122 554.1967,-122 554.1967,-86 719.8033,-86 719.8033,-122"/>
<text text-anchor="middle" x="637" y="-99.8" font-family="Times,serif" font-size="14.00" fill="#000000">AdminGallerieComponent</text>
</g>
<!-- AdminGallerieComponent&#45;&gt;AdminModule -->
<g id="edge3" class="edge">
<title>AdminGallerieComponent&#45;&gt;AdminModule</title>
<path fill="none" stroke="#000000" d="M637,-122.0091C637,-138.0494 637,-159 637,-159 637,-159 857.5862,-159 857.5862,-159"/>
<polygon fill="#000000" stroke="#000000" points="857.5862,-162.5001 867.5862,-159 857.5861,-155.5001 857.5862,-162.5001"/>
</g>
<!-- AdminHomeComponent -->
<g id="node4" class="node">
<title>AdminHomeComponent</title>
<polygon fill="#ffffb3" stroke="#000000" points="536.4326,-122 381.5674,-122 381.5674,-86 536.4326,-86 536.4326,-122"/>
<text text-anchor="middle" x="459" y="-99.8" font-family="Times,serif" font-size="14.00" fill="#000000">AdminHomeComponent</text>
</g>
<!-- AdminHomeComponent&#45;&gt;AdminModule -->
<g id="edge4" class="edge">
<title>AdminHomeComponent&#45;&gt;AdminModule</title>
<path fill="none" stroke="#000000" d="M459,-122.2667C459,-140.5552 459,-166 459,-166 459,-166 857.5508,-166 857.5508,-166"/>
<polygon fill="#000000" stroke="#000000" points="857.5509,-169.5001 867.5508,-166 857.5508,-162.5001 857.5509,-169.5001"/>
</g>
<!-- AdminKontaktComponent -->
<g id="node5" class="node">
<title>AdminKontaktComponent</title>
<polygon fill="#ffffb3" stroke="#000000" points="363.8229,-122 198.1771,-122 198.1771,-86 363.8229,-86 363.8229,-122"/>
<text text-anchor="middle" x="281" y="-99.8" font-family="Times,serif" font-size="14.00" fill="#000000">AdminKontaktComponent</text>
</g>
<!-- AdminKontaktComponent&#45;&gt;AdminModule -->
<g id="edge5" class="edge">
<title>AdminKontaktComponent&#45;&gt;AdminModule</title>
<path fill="none" stroke="#000000" d="M281,-122.1289C281,-142.5724 281,-173 281,-173 281,-173 857.6234,-173 857.6234,-173"/>
<polygon fill="#000000" stroke="#000000" points="857.6234,-176.5001 867.6234,-173 857.6233,-169.5001 857.6234,-176.5001"/>
</g>
<!-- AdminMediaComponent -->
<g id="node6" class="node">
<title>AdminMediaComponent</title>
<polygon fill="#ffffb3" stroke="#000000" points="179.9846,-122 24.0154,-122 24.0154,-86 179.9846,-86 179.9846,-122"/>
<text text-anchor="middle" x="102" y="-99.8" font-family="Times,serif" font-size="14.00" fill="#000000">AdminMediaComponent</text>
</g>
<!-- AdminMediaComponent&#45;&gt;AdminModule -->
<g id="edge6" class="edge">
<title>AdminMediaComponent&#45;&gt;AdminModule</title>
<path fill="none" stroke="#000000" d="M102,-122.0109C102,-144.4852 102,-180 102,-180 102,-180 857.5496,-180 857.5496,-180"/>
<polygon fill="#000000" stroke="#000000" points="857.5497,-183.5001 867.5496,-180 857.5496,-176.5001 857.5497,-183.5001"/>
</g>
<!-- AdminSocialComponent -->
<g id="node7" class="node">
<title>AdminSocialComponent</title>
<polygon fill="#ffffb3" stroke="#000000" points="1426.7133,-122 1271.2867,-122 1271.2867,-86 1426.7133,-86 1426.7133,-122"/>
<text text-anchor="middle" x="1349" y="-99.8" font-family="Times,serif" font-size="14.00" fill="#000000">AdminSocialComponent</text>
</g>
<!-- AdminSocialComponent&#45;&gt;AdminModule -->
<g id="edge7" class="edge">
<title>AdminSocialComponent&#45;&gt;AdminModule</title>
<path fill="none" stroke="#000000" d="M1349,-122.2819C1349,-137.9478 1349,-158 1349,-158 1349,-158 976.5559,-158 976.5559,-158"/>
<polygon fill="#000000" stroke="#000000" points="976.5559,-154.5001 966.5559,-158 976.5559,-161.5001 976.5559,-154.5001"/>
</g>
<!-- AdminVitaComponent -->
<g id="node8" class="node">
<title>AdminVitaComponent</title>
<polygon fill="#ffffb3" stroke="#000000" points="1253.323,-122 1108.677,-122 1108.677,-86 1253.323,-86 1253.323,-122"/>
<text text-anchor="middle" x="1181" y="-99.8" font-family="Times,serif" font-size="14.00" fill="#000000">AdminVitaComponent</text>
</g>
<!-- AdminVitaComponent&#45;&gt;AdminModule -->
<g id="edge8" class="edge">
<title>AdminVitaComponent&#45;&gt;AdminModule</title>
<path fill="none" stroke="#000000" d="M1181,-122.1243C1181,-136.7832 1181,-155 1181,-155 1181,-155 976.3467,-155 976.3467,-155"/>
<polygon fill="#000000" stroke="#000000" points="976.3467,-151.5001 966.3467,-155 976.3467,-158.5001 976.3467,-151.5001"/>
</g>
<!-- AdminRoutingModule -->
<g id="node10" class="node">
<title>AdminRoutingModule</title>
<polygon fill="#8dd3c7" stroke="#000000" points="1594.5561,-122 1591.5561,-126 1570.5561,-126 1567.5561,-122 1451.4439,-122 1451.4439,-86 1594.5561,-86 1594.5561,-122"/>
<text text-anchor="middle" x="1523" y="-99.8" font-family="Times,serif" font-size="14.00" fill="#000000">AdminRoutingModule</text>
</g>
<!-- AdminRoutingModule&#45;&gt;AdminModule -->
<g id="edge9" class="edge">
<title>AdminRoutingModule&#45;&gt;AdminModule</title>
<path fill="none" stroke="#000000" d="M1523,-122.0352C1523,-138.7344 1523,-161 1523,-161 1523,-161 976.3346,-161 976.3346,-161"/>
<polygon fill="#000000" stroke="#000000" points="976.3346,-157.5001 966.3346,-161 976.3345,-164.5001 976.3346,-157.5001"/>
</g>
<!-- SharedModule -->
<g id="node11" class="node">
<title>SharedModule</title>
<polygon fill="#8dd3c7" stroke="#000000" points="1711.4231,-122 1708.4231,-126 1687.4231,-126 1684.4231,-122 1612.5769,-122 1612.5769,-86 1711.4231,-86 1711.4231,-122"/>
<text text-anchor="middle" x="1662" y="-99.8" font-family="Times,serif" font-size="14.00" fill="#000000">SharedModule</text>
</g>
<!-- SharedModule&#45;&gt;AdminModule -->
<g id="edge10" class="edge">
<title>SharedModule&#45;&gt;AdminModule</title>
<path fill="none" stroke="#000000" d="M1662,-122.302C1662,-140.2699 1662,-165 1662,-165 1662,-165 976.4585,-165 976.4585,-165"/>
<polygon fill="#000000" stroke="#000000" points="976.4585,-161.5001 966.4585,-165 976.4585,-168.5001 976.4585,-161.5001"/>
</g>
<!-- HomeModule -->
<g id="node30" class="node">
<title>HomeModule</title>
<polygon fill="#8dd3c7" stroke="#000000" points="2599.7619,-187 2596.7619,-191 2575.7619,-191 2572.7619,-187 2506.2381,-187 2506.2381,-151 2599.7619,-151 2599.7619,-187"/>
<text text-anchor="middle" x="2553" y="-164.8" font-family="Times,serif" font-size="14.00" fill="#000000">HomeModule</text>
</g>
<!-- SharedModule&#45;&gt;HomeModule -->
<g id="edge29" class="edge">
<title>SharedModule&#45;&gt;HomeModule</title>
<path fill="none" stroke="#000000" d="M1686.6056,-122.1532C1686.6056,-145.7566 1686.6056,-184 1686.6056,-184 1686.6056,-184 2496.1117,-184 2496.1117,-184"/>
<polygon fill="#000000" stroke="#000000" points="2496.1117,-187.5001 2506.1117,-184 2496.1116,-180.5001 2496.1117,-187.5001"/>
</g>
<!-- LoginModule -->
<g id="node33" class="node">
<title>LoginModule</title>
<polygon fill="#8dd3c7" stroke="#000000" points="3634.493,-187 3631.493,-191 3610.493,-191 3607.493,-187 3541.507,-187 3541.507,-151 3634.493,-151 3634.493,-187"/>
<text text-anchor="middle" x="3588" y="-164.8" font-family="Times,serif" font-size="14.00" fill="#000000">LoginModule</text>
</g>
<!-- SharedModule&#45;&gt;LoginModule -->
<g id="edge32" class="edge">
<title>SharedModule&#45;&gt;LoginModule</title>
<path fill="none" stroke="#000000" d="M1637.3945,-122.0449C1637.3945,-129.749 1637.3945,-137 1637.3945,-137 1637.3945,-137 3572.5012,-137 3572.5012,-137 3572.5012,-137 3572.5012,-140.7566 3572.5012,-140.7566"/>
<polygon fill="#000000" stroke="#000000" points="3569.0013,-140.7566 3572.5012,-150.7566 3576.0013,-140.7566 3569.0013,-140.7566"/>
</g>
<!-- AppComponent -->
<g id="node12" class="node">
<title>AppComponent</title>
<polygon fill="#ffffb3" stroke="#000000" points="4333.9399,-122 4228.0601,-122 4228.0601,-86 4333.9399,-86 4333.9399,-122"/>
<text text-anchor="middle" x="4281" y="-99.8" font-family="Times,serif" font-size="14.00" fill="#000000">AppComponent</text>
</g>
<!-- AppModule -->
<g id="node15" class="node">
<title>AppModule</title>
<polygon fill="#8dd3c7" stroke="#000000" points="4192.6571,-187 4189.6571,-191 4168.6571,-191 4165.6571,-187 4109.3429,-187 4109.3429,-151 4192.6571,-151 4192.6571,-187"/>
<text text-anchor="middle" x="4151" y="-164.8" font-family="Times,serif" font-size="14.00" fill="#000000">AppModule</text>
</g>
<!-- AppComponent&#45;&gt;AppModule -->
<g id="edge11" class="edge">
<title>AppComponent&#45;&gt;AppModule</title>
<path fill="none" stroke="#000000" d="M4281,-122.0225C4281,-139.3734 4281,-163 4281,-163 4281,-163 4202.8484,-163 4202.8484,-163"/>
<polygon fill="#000000" stroke="#000000" points="4202.8484,-159.5001 4192.8484,-163 4202.8484,-166.5001 4202.8484,-159.5001"/>
</g>
<!-- FooterComponent -->
<g id="node13" class="node">
<title>FooterComponent</title>
<polygon fill="#ffffb3" stroke="#000000" points="4209.8809,-122 4092.1191,-122 4092.1191,-86 4209.8809,-86 4209.8809,-122"/>
<text text-anchor="middle" x="4151" y="-99.8" font-family="Times,serif" font-size="14.00" fill="#000000">FooterComponent</text>
</g>
<!-- FooterComponent&#45;&gt;AppModule -->
<g id="edge12" class="edge">
<title>FooterComponent&#45;&gt;AppModule</title>
<path fill="none" stroke="#000000" d="M4151,-122.1061C4151,-122.1061 4151,-140.991 4151,-140.991"/>
<polygon fill="#000000" stroke="#000000" points="4147.5001,-140.9909 4151,-150.991 4154.5001,-140.991 4147.5001,-140.9909"/>
</g>
<!-- HeaderComponent -->
<g id="node14" class="node">
<title>HeaderComponent</title>
<polygon fill="#ffffb3" stroke="#000000" points="4473.7437,-122 4352.2563,-122 4352.2563,-86 4473.7437,-86 4473.7437,-122"/>
<text text-anchor="middle" x="4413" y="-99.8" font-family="Times,serif" font-size="14.00" fill="#000000">HeaderComponent</text>
</g>
<!-- HeaderComponent&#45;&gt;AppModule -->
<g id="edge13" class="edge">
<title>HeaderComponent&#45;&gt;AppModule</title>
<path fill="none" stroke="#000000" d="M4413,-122.2843C4413,-143.3211 4413,-175 4413,-175 4413,-175 4202.8044,-175 4202.8044,-175"/>
<polygon fill="#000000" stroke="#000000" points="4202.8044,-171.5001 4192.8044,-175 4202.8044,-178.5001 4202.8044,-171.5001"/>
</g>
<!-- AppComponent  -->
<g id="node18" class="node">
<title>AppComponent </title>
<polygon fill="#80b1d3" stroke="#000000" points="4205.439,-252 4096.561,-252 4096.561,-216 4205.439,-216 4205.439,-252"/>
<text text-anchor="middle" x="4151" y="-229.8" font-family="Times,serif" font-size="14.00" fill="#000000">AppComponent </text>
</g>
<!-- AppModule&#45;&gt;AppComponent  -->
<g id="edge16" class="edge">
<title>AppModule&#45;&gt;AppComponent </title>
<path fill="none" stroke="#000000" stroke-dasharray="1,5" d="M4151,-187.1061C4151,-187.1061 4151,-205.991 4151,-205.991"/>
<polygon fill="#000000" stroke="#000000" points="4147.5001,-205.9909 4151,-215.991 4154.5001,-205.991 4147.5001,-205.9909"/>
</g>
<!-- AppRoutingModule -->
<g id="node16" class="node">
<title>AppRoutingModule</title>
<polygon fill="#8dd3c7" stroke="#000000" points="4068.2744,-122 4065.2744,-126 4044.2744,-126 4041.2744,-122 3939.7256,-122 3939.7256,-86 4068.2744,-86 4068.2744,-122"/>
<text text-anchor="middle" x="4004" y="-99.8" font-family="Times,serif" font-size="14.00" fill="#000000">AppRoutingModule</text>
</g>
<!-- AppRoutingModule&#45;&gt;AppModule -->
<g id="edge14" class="edge">
<title>AppRoutingModule&#45;&gt;AppModule</title>
<path fill="none" stroke="#000000" d="M4004,-122.1061C4004,-141.3391 4004,-169 4004,-169 4004,-169 4099.2689,-169 4099.2689,-169"/>
<polygon fill="#000000" stroke="#000000" points="4099.2689,-172.5001 4109.2689,-169 4099.2689,-165.5001 4099.2689,-172.5001"/>
</g>
<!-- CoreModule -->
<g id="node17" class="node">
<title>CoreModule</title>
<polygon fill="#8dd3c7" stroke="#000000" points="3921.2619,-122 3918.2619,-126 3897.2619,-126 3894.2619,-122 3834.7381,-122 3834.7381,-86 3921.2619,-86 3921.2619,-122"/>
<text text-anchor="middle" x="3878" y="-99.8" font-family="Times,serif" font-size="14.00" fill="#000000">CoreModule</text>
</g>
<!-- CoreModule&#45;&gt;AppModule -->
<g id="edge15" class="edge">
<title>CoreModule&#45;&gt;AppModule</title>
<path fill="none" stroke="#000000" d="M3878,-122.2921C3878,-144.2057 3878,-178 3878,-178 3878,-178 4099.24,-178 4099.24,-178"/>
<polygon fill="#000000" stroke="#000000" points="4099.24,-181.5001 4109.24,-178 4099.24,-174.5001 4099.24,-181.5001"/>
</g>
<!-- BiografieComponent -->
<g id="node19" class="node">
<title>BiografieComponent</title>
<polygon fill="#ffffb3" stroke="#000000" points="3041.2008,-122 2906.7992,-122 2906.7992,-86 3041.2008,-86 3041.2008,-122"/>
<text text-anchor="middle" x="2974" y="-99.8" font-family="Times,serif" font-size="14.00" fill="#000000">BiografieComponent</text>
</g>
<!-- BiografieComponent&#45;&gt;HomeModule -->
<g id="edge17" class="edge">
<title>BiografieComponent&#45;&gt;HomeModule</title>
<path fill="none" stroke="#000000" d="M2974,-122.2222C2974,-140.8285 2974,-167 2974,-167 2974,-167 2610.0686,-167 2610.0686,-167"/>
<polygon fill="#000000" stroke="#000000" points="2610.0686,-163.5001 2600.0686,-167 2610.0686,-170.5001 2610.0686,-163.5001"/>
</g>
<!-- EventsComponent -->
<g id="node20" class="node">
<title>EventsComponent</title>
<polygon fill="#ffffb3" stroke="#000000" points="2888.9356,-122 2769.0644,-122 2769.0644,-86 2888.9356,-86 2888.9356,-122"/>
<text text-anchor="middle" x="2829" y="-99.8" font-family="Times,serif" font-size="14.00" fill="#000000">EventsComponent</text>
</g>
<!-- EventsComponent&#45;&gt;HomeModule -->
<g id="edge18" class="edge">
<title>EventsComponent&#45;&gt;HomeModule</title>
<path fill="none" stroke="#000000" d="M2829,-122.0336C2829,-139.0597 2829,-162 2829,-162 2829,-162 2609.8196,-162 2609.8196,-162"/>
<polygon fill="#000000" stroke="#000000" points="2609.8197,-158.5001 2599.8196,-162 2609.8196,-165.5001 2609.8197,-158.5001"/>
</g>
<!-- GalleryComponent -->
<g id="node21" class="node">
<title>GalleryComponent</title>
<polygon fill="#ffffb3" stroke="#000000" points="2751.8104,-122 2628.1896,-122 2628.1896,-86 2751.8104,-86 2751.8104,-122"/>
<text text-anchor="middle" x="2690" y="-99.8" font-family="Times,serif" font-size="14.00" fill="#000000">GalleryComponent</text>
</g>
<!-- GalleryComponent&#45;&gt;HomeModule -->
<g id="edge19" class="edge">
<title>GalleryComponent&#45;&gt;HomeModule</title>
<path fill="none" stroke="#000000" d="M2690,-122.2396C2690,-137.5706 2690,-157 2690,-157 2690,-157 2609.7645,-157 2609.7645,-157"/>
<polygon fill="#000000" stroke="#000000" points="2609.7645,-153.5001 2599.7645,-157 2609.7644,-160.5001 2609.7645,-153.5001"/>
</g>
<!-- HomeComponent -->
<g id="node22" class="node">
<title>HomeComponent</title>
<polygon fill="#ffffb3" stroke="#000000" points="2610.5451,-122 2495.4549,-122 2495.4549,-86 2610.5451,-86 2610.5451,-122"/>
<text text-anchor="middle" x="2553" y="-99.8" font-family="Times,serif" font-size="14.00" fill="#000000">HomeComponent</text>
</g>
<!-- HomeComponent&#45;&gt;HomeModule -->
<g id="edge20" class="edge">
<title>HomeComponent&#45;&gt;HomeModule</title>
<path fill="none" stroke="#000000" d="M2553,-122.1061C2553,-122.1061 2553,-140.991 2553,-140.991"/>
<polygon fill="#000000" stroke="#000000" points="2549.5001,-140.9909 2553,-150.991 2556.5001,-140.991 2549.5001,-140.9909"/>
</g>
<!-- LightboxComponent -->
<g id="node23" class="node">
<title>LightboxComponent</title>
<polygon fill="#ffffb3" stroke="#000000" points="2477.1666,-122 2344.8334,-122 2344.8334,-86 2477.1666,-86 2477.1666,-122"/>
<text text-anchor="middle" x="2411" y="-99.8" font-family="Times,serif" font-size="14.00" fill="#000000">LightboxComponent</text>
</g>
<!-- LightboxComponent&#45;&gt;HomeModule -->
<g id="edge21" class="edge">
<title>LightboxComponent&#45;&gt;HomeModule</title>
<path fill="none" stroke="#000000" d="M2411,-122.1686C2411,-141.0898 2411,-168 2411,-168 2411,-168 2496.1103,-168 2496.1103,-168"/>
<polygon fill="#000000" stroke="#000000" points="2496.1104,-171.5001 2506.1103,-168 2496.1103,-164.5001 2496.1104,-171.5001"/>
</g>
<!-- MediaComponent -->
<g id="node24" class="node">
<title>MediaComponent</title>
<polygon fill="#ffffb3" stroke="#000000" points="2326.5968,-122 2209.4032,-122 2209.4032,-86 2326.5968,-86 2326.5968,-122"/>
<text text-anchor="middle" x="2268" y="-99.8" font-family="Times,serif" font-size="14.00" fill="#000000">MediaComponent</text>
</g>
<!-- MediaComponent&#45;&gt;HomeModule -->
<g id="edge22" class="edge">
<title>MediaComponent&#45;&gt;HomeModule</title>
<path fill="none" stroke="#000000" d="M2268,-122.308C2268,-142.1455 2268,-171 2268,-171 2268,-171 2495.938,-171 2495.938,-171"/>
<polygon fill="#000000" stroke="#000000" points="2495.9381,-174.5001 2505.938,-171 2495.938,-167.5001 2495.9381,-174.5001"/>
</g>
<!-- MediaViewComponent -->
<g id="node25" class="node">
<title>MediaViewComponent</title>
<polygon fill="#ffffb3" stroke="#000000" points="2191.9158,-122 2044.0842,-122 2044.0842,-86 2191.9158,-86 2191.9158,-122"/>
<text text-anchor="middle" x="2118" y="-99.8" font-family="Times,serif" font-size="14.00" fill="#000000">MediaViewComponent</text>
</g>
<!-- MediaViewComponent&#45;&gt;HomeModule -->
<g id="edge23" class="edge">
<title>MediaViewComponent&#45;&gt;HomeModule</title>
<path fill="none" stroke="#000000" d="M2118,-122.0267C2118,-142.7672 2118,-174 2118,-174 2118,-174 2496.0341,-174 2496.0341,-174"/>
<polygon fill="#000000" stroke="#000000" points="2496.0341,-177.5001 2506.0341,-174 2496.034,-170.5001 2496.0341,-177.5001"/>
</g>
<!-- NewsComponent -->
<g id="node26" class="node">
<title>NewsComponent</title>
<polygon fill="#ffffb3" stroke="#000000" points="2026.705,-122 1913.295,-122 1913.295,-86 2026.705,-86 2026.705,-122"/>
<text text-anchor="middle" x="1970" y="-99.8" font-family="Times,serif" font-size="14.00" fill="#000000">NewsComponent</text>
</g>
<!-- NewsComponent&#45;&gt;HomeModule -->
<g id="edge24" class="edge">
<title>NewsComponent&#45;&gt;HomeModule</title>
<path fill="none" stroke="#000000" d="M1970,-122.2921C1970,-144.2057 1970,-178 1970,-178 1970,-178 2495.7845,-178 2495.7845,-178"/>
<polygon fill="#000000" stroke="#000000" points="2495.7845,-181.5001 2505.7845,-178 2495.7845,-174.5001 2495.7845,-181.5001"/>
</g>
<!-- PersonalDataComponent -->
<g id="node27" class="node">
<title>PersonalDataComponent</title>
<polygon fill="#ffffb3" stroke="#000000" points="3478.9664,-122 3323.0336,-122 3323.0336,-86 3478.9664,-86 3478.9664,-122"/>
<text text-anchor="middle" x="3401" y="-99.8" font-family="Times,serif" font-size="14.00" fill="#000000">PersonalDataComponent</text>
</g>
<!-- PersonalDataComponent&#45;&gt;HomeModule -->
<g id="edge25" class="edge">
<title>PersonalDataComponent&#45;&gt;HomeModule</title>
<path fill="none" stroke="#000000" d="M3401,-122.0908C3401,-145.1328 3401,-182 3401,-182 3401,-182 2609.8001,-182 2609.8001,-182"/>
<polygon fill="#000000" stroke="#000000" points="2609.8001,-178.5001 2599.8001,-182 2609.8,-185.5001 2609.8001,-178.5001"/>
</g>
<!-- SocialsComponent -->
<g id="node28" class="node">
<title>SocialsComponent</title>
<polygon fill="#ffffb3" stroke="#000000" points="3304.7702,-122 3183.2298,-122 3183.2298,-86 3304.7702,-86 3304.7702,-122"/>
<text text-anchor="middle" x="3244" y="-99.8" font-family="Times,serif" font-size="14.00" fill="#000000">SocialsComponent</text>
</g>
<!-- SocialsComponent&#45;&gt;HomeModule -->
<g id="edge26" class="edge">
<title>SocialsComponent&#45;&gt;HomeModule</title>
<path fill="none" stroke="#000000" d="M3244,-122.0449C3244,-143.6623 3244,-177 3244,-177 3244,-177 2609.952,-177 2609.952,-177"/>
<polygon fill="#000000" stroke="#000000" points="2609.952,-173.5001 2599.952,-177 2609.9519,-180.5001 2609.952,-173.5001"/>
</g>
<!-- VitaComponent -->
<g id="node29" class="node">
<title>VitaComponent</title>
<polygon fill="#ffffb3" stroke="#000000" points="3164.9357,-122 3059.0643,-122 3059.0643,-86 3164.9357,-86 3164.9357,-122"/>
<text text-anchor="middle" x="3112" y="-99.8" font-family="Times,serif" font-size="14.00" fill="#000000">VitaComponent</text>
</g>
<!-- VitaComponent&#45;&gt;HomeModule -->
<g id="edge27" class="edge">
<title>VitaComponent&#45;&gt;HomeModule</title>
<path fill="none" stroke="#000000" d="M3112,-122.2228C3112,-142.3652 3112,-172 3112,-172 3112,-172 2610.1783,-172 2610.1783,-172"/>
<polygon fill="#000000" stroke="#000000" points="2610.1783,-168.5001 2600.1783,-172 2610.1782,-175.5001 2610.1783,-168.5001"/>
</g>
<!-- HomeRoutingModule -->
<g id="node31" class="node">
<title>HomeRoutingModule</title>
<polygon fill="#8dd3c7" stroke="#000000" points="1889.3795,-122 1886.3795,-126 1865.3795,-126 1862.3795,-122 1750.6205,-122 1750.6205,-86 1889.3795,-86 1889.3795,-122"/>
<text text-anchor="middle" x="1820" y="-99.8" font-family="Times,serif" font-size="14.00" fill="#000000">HomeRoutingModule</text>
</g>
<!-- HomeRoutingModule&#45;&gt;HomeModule -->
<g id="edge28" class="edge">
<title>HomeRoutingModule&#45;&gt;HomeModule</title>
<path fill="none" stroke="#000000" d="M1820,-122.2479C1820,-145.0179 1820,-181 1820,-181 1820,-181 2496.0325,-181 2496.0325,-181"/>
<polygon fill="#000000" stroke="#000000" points="2496.0325,-184.5001 2506.0325,-181 2496.0325,-177.5001 2496.0325,-184.5001"/>
</g>
<!-- LoginComponent -->
<g id="node32" class="node">
<title>LoginComponent</title>
<polygon fill="#ffffb3" stroke="#000000" points="3795.2758,-122 3680.7242,-122 3680.7242,-86 3795.2758,-86 3795.2758,-122"/>
<text text-anchor="middle" x="3738" y="-99.8" font-family="Times,serif" font-size="14.00" fill="#000000">LoginComponent</text>
</g>
<!-- LoginComponent&#45;&gt;LoginModule -->
<g id="edge30" class="edge">
<title>LoginComponent&#45;&gt;LoginModule</title>
<path fill="none" stroke="#000000" d="M3738,-122.027C3738,-138.3976 3738,-160 3738,-160 3738,-160 3644.6387,-160 3644.6387,-160"/>
<polygon fill="#000000" stroke="#000000" points="3644.6387,-156.5001 3634.6387,-160 3644.6387,-163.5001 3644.6387,-156.5001"/>
</g>
<!-- LoginRoutingModule -->
<g id="node34" class="node">
<title>LoginRoutingModule</title>
<polygon fill="#8dd3c7" stroke="#000000" points="3657.1108,-122 3654.1108,-126 3633.1108,-126 3630.1108,-122 3518.8892,-122 3518.8892,-86 3657.1108,-86 3657.1108,-122"/>
<text text-anchor="middle" x="3588" y="-99.8" font-family="Times,serif" font-size="14.00" fill="#000000">LoginRoutingModule</text>
</g>
<!-- LoginRoutingModule&#45;&gt;LoginModule -->
<g id="edge31" class="edge">
<title>LoginRoutingModule&#45;&gt;LoginModule</title>
<path fill="none" stroke="#000000" d="M3603.4988,-122.1061C3603.4988,-122.1061 3603.4988,-140.991 3603.4988,-140.991"/>
<polygon fill="#000000" stroke="#000000" points="3599.9989,-140.9909 3603.4988,-150.991 3606.9989,-140.991 3599.9989,-140.9909"/>
</g>
</g>
</svg>
